HIERARCHY
ROOT Hips
{
	OFFSET 0.000000 0.000000 0.000000
	CHANNELS 6 Xposition Yposition Zposition Zrotation Yrotation Xrotation 
	JOINT LHipJoint
	{
		OFFSET 0.000000 0.000000 0.000000
		CHANNELS 3 Zrotation Yrotation Xrotation
		JOINT LeftUpLeg
		{
			OFFSET 1.363060 -1.794630 0.839290
			CHANNELS 3 Zrotation Yrotation Xrotation
			JOINT LeftLeg
			{
				OFFSET 2.448110 -6.726130 0.000000
				CHANNELS 3 Zrotation Yrotation Xrotation
				JOINT LeftFoot
				{
					OFFSET 2.562200 -7.039590 0.000000
					CHANNELS 3 Zrotation Yrotation Xrotation
					JOINT LeftToeBase
					{
						OFFSET 0.157640 -0.433110 2.322550
						CHANNELS 3 Zrotation Yrotation Xrotation
						End Site
						{
							OFFSET 0.000000 0.000000 0.000000
						}
					}
				}
			}
		}
	}
	JOINT RHipJoint
	{
		OFFSET 0.000000 0.000000 0.000000
		CHANNELS 3 Zrotation Yrotation Xrotation
		JOINT RightUpLeg
		{
			OFFSET -1.305520 -1.794630 0.839290
			CHANNELS 3 Zrotation Yrotation Xrotation
			JOINT RightLeg
			{
				OFFSET -2.542530 -6.985550 0.000000
				CHANNELS 3 Zrotation Yrotation Xrotation
				JOINT RightFoot
				{
					OFFSET -2.568260 -7.056230 0.000000
					CHANNELS 3 Zrotation Yrotation Xrotation
					JOINT RightToeBase
					{
						OFFSET -0.164730 -0.452590 2.363150
						CHANNELS 3 Zrotation Yrotation Xrotation
						End Site
						{
							OFFSET 0.000000 0.000000 0.000000
						}
					}
				}
			}
		}
	}
	JOINT LowerBack
	{
		OFFSET 0.000000 0.000000 0.000000
		CHANNELS 3 Zrotation Yrotation Xrotation
		JOINT Spine
		{
			OFFSET 0.028270 2.035590 -0.193380
			CHANNELS 3 Zrotation Yrotation Xrotation
			JOINT Spine1
			{
				OFFSET 0.056720 2.048850 -0.042750
				CHANNELS 3 Zrotation Yrotation Xrotation
				JOINT Neck
				{
					OFFSET 0.000000 0.000000 0.000000
					CHANNELS 3 Zrotation Yrotation Xrotation
					JOINT Neck1
					{
						OFFSET -0.054170 1.746240 0.172020
						CHANNELS 3 Zrotation Yrotation Xrotation
						JOINT Head
						{
							OFFSET 0.104070 1.761360 -0.123970
							CHANNELS 3 Zrotation Yrotation Xrotation
							End Site
							{
								OFFSET 0.000000 0.000000 0.000000
							}
						}
					}
				}
				JOINT LeftShoulder
				{
					OFFSET 0.000000 0.000000 0.000000
					CHANNELS 3 Zrotation Yrotation Xrotation
					JOINT LeftArm
					{
						OFFSET 3.362410 1.200890 -0.311210
						CHANNELS 3 Zrotation Yrotation Xrotation
						JOINT LeftForeArm
						{
							OFFSET 4.983000 -0.000000 -0.000000
							CHANNELS 3 Zrotation Yrotation Xrotation
							JOINT LeftHand
							{
								OFFSET 3.483560 -0.000000 -0.000000
								CHANNELS 3 Zrotation Yrotation Xrotation
								JOINT LeftFingerBase
								{
									OFFSET 0.000000 0.000000 0.000000
									CHANNELS 3 Zrotation Yrotation Xrotation
									JOINT LeftHandIndex1
									{
										OFFSET 0.715260 -0.000000 -0.000000
										CHANNELS 3 Zrotation Yrotation Xrotation
										End Site
										{
											OFFSET 0.000000 0.000000 0.000000
										}
									}
								}
								JOINT LThumb
								{
									OFFSET 0.000000 0.000000 0.000000
									CHANNELS 3 Zrotation Yrotation Xrotation
									End Site
									{
										OFFSET 0.000000 0.000000 0.000000
									}
								}
							}
						}
					}
				}
				JOINT RightShoulder
				{
					OFFSET 0.000000 0.000000 0.000000
					CHANNELS 3 Zrotation Yrotation Xrotation
					JOINT RightArm
					{
						OFFSET -3.136600 1.374050 -0.404650
						CHANNELS 3 Zrotation Yrotation Xrotation
						JOINT RightForeArm
						{
							OFFSET -5.241900 -0.000000 -0.000000
							CHANNELS 3 Zrotation Yrotation Xrotation
							JOINT RightHand
							{
								OFFSET -3.444170 -0.000000 -0.000000
								CHANNELS 3 Zrotation Yrotation Xrotation
								JOINT RightFingerBase
								{
									OFFSET 0.000000 0.000000 0.000000
									CHANNELS 3 Zrotation Yrotation Xrotation
									JOINT RightHandIndex1
									{
										OFFSET -0.622530 -0.000000 -0.000000
										CHANNELS 3 Zrotation Yrotation Xrotation
										End Site
										{
											OFFSET 0.000000 0.000000 0.000000
										}
									}
								}
								JOINT RThumb
								{
									OFFSET 0.000000 0.000000 0.000000
									CHANNELS 3 Zrotation Yrotation Xrotation
									End Site
									{
										OFFSET 0.000000 0.000000 0.000000
									}
								}
							}
						}
					}
				}
			}
		}
	}
}
MOTION
Frames: 13
Frame Time: 0.016667
-1.804518 17.748807 24.086279 0.842536 -4.655001 8.683537 -1.324745 14.861313 -0.696543 -22.583866 -4.167432 -7.924646 -9.226020 -6.929202 -16.763796 1.667308 8.798863 23.039019 0.000000 0.000000 0.000000 5.902014 -17.634266 -1.998921 22.633225 20.999950 -14.741431 -13.425104 -14.153321 73.313513 24.593678 -22.830082 -10.187687 0.000000 0.000000 0.000000 -3.354222 1.302330 8.444705 2.786615 0.634111 1.583100 1.142466 1.271737 -8.848499 0.006353 0.005520 -2.029977 2.066195 -0.037155 2.866247 0.000000 0.000000 0.000000 -0.739032 13.830257 10.290166 -70.128648 -5.872961 8.743091 -171.117599 -89.702341 -179.601152 3.263391 -10.006565 0.198224 3.271788 -10.004337 0.000000 0.000000 0.000000 0.000000 0.000000 0.000000 0.000000 2.382432 -14.925038 7.690440 57.160834 4.554778 17.890740 22.765147 64.511685 0.135566 -0.401787 5.894406 0.067449 -0.406461 5.895669 0.000000 0.000000 0.000000 0.000000 0.000000 0.000000 0.000000 
-1.773863 17.807958 24.320116 1.106547 -4.672544 8.663269 -1.732645 14.826447 -0.674695 -22.712830 -4.212516 -7.882672 -8.669955 -6.324186 -15.025347 1.294760 7.641664 20.346821 0.000000 0.000000 0.000000 5.495765 -17.561400 -1.069178 21.557121 20.571430 -14.895860 -12.670492 -14.467157 72.113321 24.182546 -23.015529 -8.720341 0.000000 0.000000 0.000000 -2.394428 1.432053 7.548074 1.523123 0.566867 3.162210 0.738296 1.218666 -9.221124 0.267322 -0.028002 -1.994201 2.096677 -0.041379 2.913585 0.000000 0.000000 0.000000 -0.696196 13.765949 10.011987 -69.639819 -5.940212 10.068780 7.595084 -89.603085 0.405699 3.285837 -10.355437 0.201372 3.297029 -10.352621 0.000000 0.000000 0.000000 0.000000 0.000000 0.000000 0.000000 1.633134 -14.875550 7.593998 58.780005 4.580827 18.196620 22.649363 65.977846 0.176966 -0.327192 7.233421 0.087915 -0.334028 7.235189 0.000000 0.000000 0.000000 0.000000 0.000000 0.000000 0.000000 
-1.757987 17.856031 24.533005 1.309849 -4.460618 8.654302 -2.015700 14.634125 -0.781940 -22.816617 -4.228849 -7.725195 -8.156875 -5.798298 -13.404221 1.009848 6.563322 17.963471 0.000000 0.000000 0.000000 5.267087 -17.185882 -0.423506 20.457219 19.891842 -14.831002 -11.732890 -15.031991 70.876710 23.939129 -23.257974 -7.664138 0.000000 0.000000 0.000000 -1.747641 1.478844 7.047792 0.660316 0.494523 4.075478 0.373642 1.148477 -9.321665 0.545512 -0.057425 -1.985231 2.141348 -0.043768 2.954447 0.000000 0.000000 0.000000 -0.500456 13.569193 9.811228 -69.301378 -5.931584 11.443139 6.070774 -88.801328 0.418301 3.242795 -10.696888 0.207421 3.256107 -10.693875 0.000000 0.000000 0.000000 0.000000 0.000000 0.000000 0.000000 0.750263 -14.724545 7.509417 60.488419 4.527266 18.673456 22.194147 67.942173 0.228178 -0.288136 8.626681 0.113199 -0.297305 8.629034 0.000000 0.000000 0.000000 0.000000 0.000000 0.000000 0.000000 
-1.749472 17.897585 24.731280 1.638597 -4.614991 8.305291 -1.687994 13.954543 -1.669237 -23.664726 -3.280623 -6.059181 -7.358408 -5.343058 -12.541538 0.823081 6.006376 16.551713 0.000000 0.000000 0.000000 4.986787 -16.600118 0.204739 19.390993 19.098510 -14.407856 -11.008018 -15.483955 69.668709 23.504189 -23.349746 -6.489999 0.000000 0.000000 0.000000 -1.543740 1.598700 7.108905 0.048613 0.527466 4.584046 0.053265 1.179272 -9.268219 0.761231 -0.074071 -1.974618 2.220715 -0.045044 3.010082 0.000000 0.000000 0.000000 -0.244368 13.424763 9.668689 -69.059646 -5.979809 12.574222 4.680192 -88.101101 0.429017 3.180215 -10.994894 0.212558 3.195263 -10.991834 0.000000 0.000000 0.000000 0.000000 0.000000 0.000000 0.000000 -0.061437 -14.524188 7.409251 62.008012 4.506330 18.957774 21.901836 69.435177 0.278279 -0.256326 9.821747 0.137900 -0.267501 9.824694 0.000000 0.000000 0.000000 0.000000 0.000000 0.000000 0.000000 
-1.748004 17.931915 24.914413 1.837408 -4.523268 8.153608 -1.556845 13.384979 -2.285436 -24.088009 -2.733680 -5.037745 -6.777861 -4.929129 -11.552312 0.673770 5.398278 15.090186 0.000000 0.000000 0.000000 4.946066 -15.881330 0.588296 18.331188 18.209520 -13.981939 -10.180630 -16.073600 68.470163 23.222758 -23.527245 -5.571670 0.000000 0.000000 0.000000 -1.474387 1.602515 7.276745 -0.220284 0.492940 4.621180 -0.223380 1.153507 -9.072768 0.915984 -0.082419 -1.953683 2.313476 -0.047033 3.091116 0.000000 0.000000 0.000000 0.057535 13.257710 9.553456 -68.926176 -6.022300 13.468817 3.497362 -87.518962 0.438083 3.114626 -11.228632 0.216912 3.130994 -11.225628 0.000000 0.000000 0.000000 0.000000 0.000000 0.000000 0.000000 -0.818993 -14.352505 7.337813 63.320935 4.516749 19.096769 21.753523 70.478546 0.322243 -0.227288 10.804595 0.159541 -0.240094 10.808082 0.000000 0.000000 0.000000 0.000000 0.000000 0.000000 0.000000 
-1.728212 17.977501 25.108745 1.990580 -4.591165 8.166225 -1.991556 13.010200 -2.368497 -23.935563 -2.557705 -4.751524 -6.234411 -4.576664 -10.705653 0.536411 4.869396 13.731426 0.000000 0.000000 0.000000 4.976476 -15.452705 1.193262 17.157637 17.592837 -13.948637 -9.442333 -16.402672 67.278306 22.795613 -23.636990 -4.329161 0.000000 0.000000 0.000000 -0.977545 1.649494 6.829305 -0.864388 0.470193 5.352752 -0.555911 1.118625 -9.120809 1.070072 -0.089845 -1.943312 2.411394 -0.046881 3.129829 0.000000 0.000000 0.000000 0.153650 13.231817 9.377242 -68.654796 -6.146915 14.115361 2.776193 -87.131313 0.443815 3.094872 -11.389200 0.219636 3.112396 -11.386129 0.000000 0.000000 0.000000 0.000000 0.000000 0.000000 0.000000 -1.423668 -14.316984 7.295072 64.488893 4.684070 18.711316 22.414405 70.169666 0.360184 -0.121758 11.636843 0.178232 -0.135327 11.640935 0.000000 0.000000 0.000000 0.000000 0.000000 0.000000 0.000000 
-1.704989 18.023511 25.299416 2.103556 -4.714506 8.262815 -2.600434 12.671743 -2.288212 -23.561936 -2.489524 -4.697112 -5.731090 -4.281550 -10.027947 0.424391 4.426230 12.527042 0.000000 0.000000 0.000000 5.096046 -15.070742 1.788959 15.967087 17.047834 -14.016219 -8.752973 -16.649299 66.120917 22.350476 -23.742884 -3.032200 0.000000 0.000000 0.000000 -0.432973 1.680132 6.301468 -1.522054 0.437989 6.086392 -0.932598 1.065236 -9.128801 1.215846 -0.094429 -1.959682 2.555780 -0.046770 3.195795 0.000000 0.000000 0.000000 0.240916 13.331599 9.156653 -68.388674 -6.363662 14.469002 2.515254 -86.974970 0.445955 3.111785 -11.472052 0.220616 3.130133 -11.468819 0.000000 0.000000 0.000000 0.000000 0.000000 0.000000 0.000000 -2.054275 -14.354662 7.336739 65.660235 5.070647 17.700886 23.974915 68.358902 0.388736 0.083459 12.300335 0.192357 0.070427 12.305063 0.000000 0.000000 0.000000 0.000000 0.000000 0.000000 0.000000 
-1.684131 18.065987 25.481182 2.225637 -4.820841 8.302218 -3.158791 12.388526 -2.195632 -23.213838 -2.439461 -4.672127 -5.321925 -3.943651 -9.231645 0.326694 4.002259 11.364527 0.000000 0.000000 0.000000 5.250435 -14.669726 2.363627 14.773440 16.450809 -14.015916 -8.077001 -16.902860 64.959179 21.854897 -23.776872 -1.784255 0.000000 0.000000 0.000000 0.034251 1.698982 5.718838 -2.093903 0.409246 6.910267 -1.135054 1.008592 -9.192040 1.353314 -0.102405 -2.058925 2.589682 -0.041339 3.119042 0.000000 0.000000 0.000000 0.291837 13.284232 9.015105 -68.140552 -6.390852 15.156859 1.524669 -86.462432 0.450777 3.071734 -11.680170 0.222833 3.091747 -11.676864 0.000000 0.000000 0.000000 0.000000 0.000000 0.000000 0.000000 -2.466249 -14.345889 7.336678 66.427863 5.307818 17.131099 24.715477 67.498850 0.411174 0.184308 12.782968 0.203446 0.171545 12.788099 0.000000 0.000000 0.000000 0.000000 0.000000 0.000000 0.000000 
-1.666347 18.104558 25.653808 2.361980 -4.908402 8.271261 -3.656267 12.165912 -2.089397 -22.905126 -2.405599 -4.666089 -4.999932 -3.564647 -8.310226 0.240542 3.588560 10.235469 0.000000 0.000000 0.000000 5.431277 -14.255760 2.928337 13.581956 15.805512 -13.942399 -7.415719 -17.165965 63.797782 21.307590 -23.732278 -0.591484 0.000000 0.000000 0.000000 0.426366 1.713495 5.052712 -2.604158 0.388807 7.893109 -1.125512 0.950860 -9.332232 1.482915 -0.112953 -2.256724 2.499120 -0.029580 2.877712 0.000000 0.000000 0.000000 0.311443 13.066656 8.950488 -67.922615 -6.235881 16.197822 -0.336069 -85.529698 0.458453 2.955680 -12.022657 0.226355 2.978262 -12.019475 0.000000 0.000000 0.000000 0.000000 0.000000 0.000000 0.000000 -2.627661 -14.279500 7.288747 66.760885 5.354837 17.104962 24.555364 67.793469 0.426105 0.164354 13.065714 0.210783 0.151147 13.070998 0.000000 0.000000 0.000000 0.000000 0.000000 0.000000 0.000000 
-1.651703 18.139517 25.818256 2.523865 -4.943226 8.113348 -4.096257 12.006539 -1.940320 -22.634077 -2.389966 -4.657663 -4.757143 -3.145340 -7.233876 0.162313 3.166322 9.129625 0.000000 0.000000 0.000000 5.613719 -13.856413 3.539328 12.385850 15.120384 -13.778831 -6.715920 -17.450521 62.617776 20.761710 -23.639050 0.493310 0.000000 0.000000 0.000000 0.790516 1.728162 4.158121 -3.116819 0.383663 9.353811 -0.936821 0.895600 -9.607189 1.754565 -0.142599 -2.712972 2.217019 -0.008423 2.369845 0.000000 0.000000 0.000000 0.298151 12.636817 8.941229 -67.755954 -5.961603 17.453849 -2.995436 -84.177217 0.469938 2.744779 -12.435040 0.231727 2.770037 -12.432432 0.000000 0.000000 0.000000 0.000000 0.000000 0.000000 0.000000 -2.721547 -14.065107 7.200483 66.936203 5.228734 17.540653 23.472781 69.314565 0.439340 0.017208 13.296822 0.217196 0.002345 13.302051 0.000000 0.000000 0.000000 0.000000 0.000000 0.000000 0.000000 
-1.640851 18.170503 25.974183 2.713837 -4.915813 7.787458 -4.466158 11.922845 -1.727394 -22.407721 -2.393803 -4.632243 -4.587169 -2.685034 -5.984467 0.089937 2.727485 8.043198 0.000000 0.000000 0.000000 5.793583 -13.485074 4.227680 11.184746 14.395942 -13.511596 -5.974763 -17.756693 61.418917 20.222648 -23.495660 1.458720 0.000000 0.000000 0.000000 1.125757 1.751830 2.935442 -3.659265 0.405431 11.578129 -0.507328 0.843944 -10.141231 2.231529 -0.208875 -3.523523 1.652706 0.015225 1.537310 0.000000 0.000000 0.000000 0.273556 11.997921 8.959998 -67.685972 -5.608024 18.897093 -6.739577 -82.261256 0.486053 2.394635 -12.907274 0.239385 2.422209 -12.905969 0.000000 0.000000 0.000000 0.000000 0.000000 0.000000 0.000000 -2.773265 -13.702825 7.029843 66.933063 4.944345 18.383566 21.304504 72.064715 0.446510 -0.287498 13.434584 0.220491 -0.305678 13.439344 0.000000 0.000000 0.000000 0.000000 0.000000 0.000000 0.000000 
-1.632603 18.198901 26.124206 2.877982 -4.823777 7.481132 -4.792677 11.818682 -1.563425 -22.181245 -2.406161 -4.604397 -4.443075 -2.219295 -4.701778 0.027463 2.310596 7.030967 0.000000 0.000000 0.000000 6.016576 -13.126776 4.886991 10.029574 13.697183 -13.225917 -5.181104 -18.061487 60.234523 19.840730 -23.470363 2.295529 0.000000 0.000000 0.000000 1.368757 1.763047 1.813956 -4.028932 0.417348 13.745275 -0.313691 0.799249 -10.774982 2.796453 -0.275579 -4.311122 1.170094 0.029203 0.806900 0.000000 0.000000 0.000000 0.126047 11.592113 8.950245 -67.684745 -5.277711 20.134629 -10.195283 -80.131234 0.463300 2.493395 -13.945982 0.226444 2.536620 -13.942811 0.000000 0.000000 0.000000 0.000000 0.000000 0.000000 0.000000 -3.028664 -13.498035 6.940908 67.227979 4.796949 18.617842 20.222446 73.386128 0.451029 -0.453783 13.578571 0.222559 -0.474094 13.583005 0.000000 0.000000 0.000000 0.000000 0.000000 0.000000 0.000000 
-1.627392 18.224473 26.268151 2.999920 -4.668006 7.229369 -5.057021 11.688683 -1.479685 -21.963055 -2.427789 -4.580496 -4.323170 -1.744399 -3.376566 -0.026215 1.913674 6.082686 0.000000 0.000000 0.000000 6.298017 -12.757272 5.483450 8.931242 13.027900 -12.915313 -4.328448 -18.373549 59.062129 19.636206 -23.584376 2.985343 0.000000 0.000000 0.000000 1.467167 1.699746 0.901345 -4.089003 0.404471 15.716134 -0.602660 0.767771 -11.647400 3.502566 -0.338272 -5.082936 0.918087 0.037294 0.349674 0.000000 0.000000 0.000000 -0.481732 11.651772 9.111707 -67.749151 -5.029592 19.569346 -8.088380 -80.628410 0.499039 2.372636 -13.168392 0.245535 2.402559 -13.167186 0.000000 0.000000 0.000000 0.000000 0.000000 0.000000 0.000000 -3.439405 -13.506921 6.990288 67.897282 4.711493 18.320928 20.612769 73.128638 0.461278 -0.413230 13.797591 0.227609 -0.433579 13.802219 0.000000 0.000000 0.000000 0.000000 0.000000 0.000000 0.000000 
